<svg xmlns="http://www.w3.org/2000/svg" viewBox="0 0 94 94"><defs><style>.cls-1,.cls-2{fill:none;stroke:#ffa300;stroke-width:2px;}.cls-1,.cls-2,.cls-4{stroke-miterlimit:10;}.cls-1{opacity:0.5;}.cls-3{fill:#ffd250;}.cls-4{stroke:#000;stroke-width:0.75px;}</style></defs><title>404_1</title><g id="Layer_2" data-name="Layer 2"><g id="Layer_1-2" data-name="Layer 1"><line class="cls-1" x1="1" y1="8" x2="8" y2="1"/><polygon class="cls-2" points="93 8 86 1 8 1 1 8 1 86 8 93 86 93 93 86 93 8"/><path class="cls-3" d="M53.19,13H40.81L8.21,69l6.17,10.15H80L85.79,69Z"/><path d="M53.51,11h-13L6.21,70.37,12.7,81.14H81.64l6.15-10.77ZM78.74,76.14H15.52L12,70.32,43,16.66V34h8V16.66L82,70.39Z"/><rect x="43" y="37" width="8" height="6"/><path class="cls-4" d="M27.34,66.33V64.15l6-12.94h2.58L30.06,64h8.77v2.33ZM35,69.08V58.56h2.45V69.08Z"/><path class="cls-4" d="M47,69.25a5,5,0,0,1-3.83-1.37,5.22,5.22,0,0,1-1.27-3.71V56.05a5.16,5.16,0,0,1,1.29-3.72A5,5,0,0,1,47,51a5,5,0,0,1,3.82,1.34,5.21,5.21,0,0,1,1.28,3.73v8.12a5.21,5.21,0,0,1-1.28,3.73A5,5,0,0,1,47,69.25Zm0-2.38a2.44,2.44,0,0,0,2-.72,3,3,0,0,0,.61-2V56.05a3,3,0,0,0-.61-2,3.12,3.12,0,0,0-4,0,3,3,0,0,0-.61,2v8.12a3,3,0,0,0,.61,2A2.44,2.44,0,0,0,47,66.87Z"/><path class="cls-4" d="M55.54,66.33V64.15l6-12.94h2.58L58.27,64H67v2.33Zm7.71,2.75V58.56h2.44V69.08Z"/></g></g></svg>