<svg xmlns="http://www.w3.org/2000/svg" viewBox="0 0 190.67 89.25"><defs><style>.cls-1{fill:#fff;}</style></defs><title>logo_2</title><g id="Layer_2" data-name="Layer 2"><g id="Layer_2-2" data-name="Layer 2"><polygon class="cls-1" points="30.49 0.04 30.45 0.04 29.22 0.04 29.22 1.06 21.17 17.16 13.12 1.06 13.12 0.04 11.9 0.04 11.85 0.04 1.23 0.04 0 0.04 0 1.27 0 41.11 0 42.34 1.23 42.34 11.9 42.34 13.12 42.34 13.12 41.11 13.12 26.18 17.14 33.72 17.49 34.37 18.23 34.37 19.78 34.37 22.57 34.37 24.12 34.37 24.85 34.37 25.2 33.72 29.22 26.18 29.22 41.11 29.22 42.34 30.45 42.34 41.12 42.34 42.34 42.34 42.34 41.11 42.34 1.27 42.34 0.04 41.12 0.04 30.49 0.04"/><polygon class="cls-1" points="30.49 46.95 30.45 46.95 29.22 46.95 29.22 47.97 21.17 64.07 13.12 47.97 13.12 46.95 11.9 46.95 11.85 46.95 1.23 46.95 0 46.95 0 48.18 0 88.02 0 89.25 1.23 89.25 11.9 89.25 13.12 89.25 13.12 88.02 13.12 73.09 17.14 80.63 17.49 81.28 18.23 81.28 19.78 81.28 22.57 81.28 24.12 81.28 24.85 81.28 25.2 80.63 29.22 73.09 29.22 88.02 29.22 89.25 30.45 89.25 41.12 89.25 42.34 89.25 42.34 88.02 42.34 48.18 42.34 46.95 41.12 46.95 30.49 46.95"/><path class="cls-1" d="M70.14,0A21.14,21.14,0,1,0,91.28,21.15,21.16,21.16,0,0,0,70.14,0Zm0,31A9.84,9.84,0,1,1,80,21.15,9.85,9.85,0,0,1,70.14,31Z"/><path class="cls-1" d="M70.14,47A21.14,21.14,0,1,0,91.28,68.1,21.16,21.16,0,0,0,70.14,47Zm0,31A9.84,9.84,0,1,1,80,68.1,9.85,9.85,0,0,1,70.14,77.94Z"/><path class="cls-1" d="M119.11,47A21.14,21.14,0,1,0,140.25,68.1,21.16,21.16,0,0,0,119.11,47Zm9.83,21.14a9.84,9.84,0,1,1-9.83-9.84A9.85,9.85,0,0,1,128.94,68.1Z"/><path class="cls-1" d="M139,0h-11.9v22.8l-8.45-11.52-7.24-9.87-.38-.52V0H97.94V1.27l0,19.88a21.17,21.17,0,0,0,13.1,19.55V19.58L119.42,31l7.26,9.9.7,1,.37.5h12.5l0-1.23V0Z"/><polygon class="cls-1" points="177.34 46.95 176.11 46.95 176.11 48.18 176.11 69.75 160.04 47.83 160.04 46.95 158.81 46.95 158.76 46.95 148.14 46.95 146.91 46.95 146.91 48.18 146.91 88.02 146.91 89.25 148.14 89.25 158.81 89.25 160.04 89.25 160.04 88.02 160.04 66.49 176.35 88.75 176.72 89.25 177.34 89.25 187.99 89.25 189.21 89.25 189.23 88.02 189.23 48.18 189.23 46.95 188.01 46.95 177.34 46.95"/><polygon class="cls-1" points="158.63 42.3 159.86 42.3 159.86 41.07 159.86 23.63 173.57 41.81 173.94 42.3 174.54 42.3 188.18 42.38 190.67 42.39 189.16 40.41 173.47 19.87 188.76 2.03 190.5 0 187.83 0 174.55 0 173.99 0 173.62 0.43 159.86 16.4 159.86 1.23 159.86 0 158.63 0 147.96 0 146.74 0 146.74 1.23 146.74 41.07 146.74 42.3 147.96 42.3 158.63 42.3"/></g></g></svg>